<svg width="20" height="16" viewBox="0 0 20 16" fill="none" xmlns="http://www.w3.org/2000/svg">
<path d="M0 4.48048V3.84055C0 3.31041 0.419727 2.88065 0.9375 2.88065H15V0.960855C15 0.106266 16.0117 -0.320689 16.6004 0.282087L19.7254 3.48175C20.0915 3.85663 20.0915 4.4644 19.7254 4.83924L16.6004 8.03891C16.0139 8.63932 15 8.21833 15 7.36018V5.44038H0.9375C0.419727 5.44038 0 5.01063 0 4.48048ZM19.0625 10.5598H5V8.64004C5 7.78757 3.98977 7.35698 3.39957 7.96127L0.27457 11.1609C-0.0915234 11.5358 -0.0915234 12.1436 0.27457 12.5184L3.39957 15.7181C3.9866 16.3191 5 15.8968 5 15.0394V13.1196H19.0625C19.5803 13.1196 20 12.6898 20 12.1597V11.5197C20 10.9896 19.5803 10.5598 19.0625 10.5598Z" fill="#9A9A9A"/>
</svg>
