<svg width="20" height="16" viewBox="0 0 20 16" fill="none" xmlns="http://www.w3.org/2000/svg">
<path d="M20 3.42858V4.00001C20 4.07578 19.9649 4.14846 19.9024 4.20204C19.8399 4.25562 19.7551 4.28572 19.6667 4.28572H18.6667V4.71429C18.6667 4.95097 18.4428 5.14286 18.1667 5.14286H1.83333C1.55721 5.14286 1.33333 4.95097 1.33333 4.71429V4.28572H0.333333C0.244928 4.28572 0.160143 4.25562 0.0976311 4.20204C0.0351189 4.14846 0 4.07578 0 4.00001V3.42858C4.76726e-07 3.37205 0.0195616 3.3168 0.0562084 3.26981C0.0928552 3.22281 0.144941 3.18619 0.205875 3.16458L9.87254 0.021724C9.95415 -0.00724132 10.0458 -0.00724132 10.1275 0.021724L19.7941 3.16458C19.8551 3.18619 19.9071 3.22281 19.9438 3.26981C19.9804 3.3168 20 3.37205 20 3.42858ZM19 14.2857H1C0.447708 14.2857 0 14.6695 0 15.1429V15.7143C0 15.7901 0.0351189 15.8627 0.0976311 15.9163C0.160143 15.9699 0.244928 16 0.333333 16H19.6667C19.7551 16 19.8399 15.9699 19.9024 15.9163C19.9649 15.8627 20 15.7901 20 15.7143V15.1429C20 14.6695 19.5523 14.2857 19 14.2857ZM3.33333 5.71429V12.5714H1.83333C1.55721 12.5714 1.33333 12.7633 1.33333 13V13.7143H18.6667V13C18.6667 12.7633 18.4428 12.5714 18.1667 12.5714H16.6667V5.71429H14V12.5714H11.3333V5.71429H8.66667V12.5714H6V5.71429H3.33333Z" fill="#9A9A9A"/>
</svg>
