<svg width="16" height="12" viewBox="0 0 16 12" fill="none" xmlns="http://www.w3.org/2000/svg">
<path d="M4.8 6C6.3475 6 7.6 4.65804 7.6 3C7.6 1.34196 6.3475 0 4.8 0C3.2525 0 2 1.34196 2 3C2 4.65804 3.2525 6 4.8 6ZM6.72 6.85714H6.5125C5.9925 7.125 5.415 7.28571 4.8 7.28571C4.185 7.28571 3.61 7.125 3.0875 6.85714H2.88C1.29 6.85714 0 8.23929 0 9.94286V10.7143C0 11.4241 0.5375 12 1.2 12H8.4C9.0625 12 9.6 11.4241 9.6 10.7143V9.94286C9.6 8.23929 8.31 6.85714 6.72 6.85714ZM12 6C13.325 6 14.4 4.84821 14.4 3.42857C14.4 2.00893 13.325 0.857143 12 0.857143C10.675 0.857143 9.6 2.00893 9.6 3.42857C9.6 4.84821 10.675 6 12 6ZM13.2 6.85714H13.105C12.7575 6.98571 12.39 7.07143 12 7.07143C11.61 7.07143 11.2425 6.98571 10.895 6.85714H10.8C10.29 6.85714 9.82 7.01518 9.4075 7.26964C10.0175 7.97411 10.4 8.90893 10.4 9.94286V10.9714C10.4 11.0304 10.3875 11.0866 10.385 11.1429H14.8C15.4625 11.1429 16 10.567 16 9.85714C16 8.19911 14.7475 6.85714 13.2 6.85714Z" fill="#9A9A9A"/>
</svg>
