<svg width="16" height="16" viewBox="0 0 16 16" fill="none" xmlns="http://www.w3.org/2000/svg">
<path d="M6.95238 3.00006L7.44898 2.00004L8.44218 1.50003L7.44898 1.00002L6.95238 0L6.45578 1.00002L5.46258 1.50003L6.45578 2.00004L6.95238 3.00006ZM2.48299 5.0001L3.31045 3.3335L4.96599 2.50005L3.31045 1.6666L2.48299 0L1.65554 1.6666L0 2.50005L1.65554 3.3335L2.48299 5.0001ZM13.4082 9.00018L12.5807 10.6668L10.9252 11.5002L12.5807 12.3337L13.4082 14.0003L14.2356 12.3337L15.8912 11.5002L14.2356 10.6668L13.4082 9.00018ZM15.6 2.94475L12.9665 0.293131C12.7728 0.0975019 12.5186 0 12.2644 0C12.0102 0 11.756 0.0975019 11.5621 0.293131L0.291131 11.6415C-0.0968367 12.0321 -0.0968367 12.6652 0.291131 13.0556L2.92466 15.7072C3.11864 15.9025 3.37284 16 3.62672 16C3.88092 16 4.13511 15.9025 4.3291 15.7072L15.6 4.35852C15.988 3.96852 15.988 3.33507 15.6 2.94475ZM11.1564 6.35825L9.57628 4.76728L12.2641 2.06098L13.8442 3.65195L11.1564 6.35825Z" fill="#BCBCBC"/>
</svg>
