<svg width="14" height="17" viewBox="0 0 14 17" fill="none" xmlns="http://www.w3.org/2000/svg">
<path d="M8.44898 1H2.4898C2.09468 1 1.71574 1.15804 1.43635 1.43934C1.15696 1.72064 1 2.10218 1 2.5V14.5C1 14.8978 1.15696 15.2794 1.43635 15.5607C1.71574 15.842 2.09468 16 2.4898 16H11.4286C11.8237 16 12.2026 15.842 12.482 15.5607C12.7614 15.2794 12.9184 14.8978 12.9184 14.5V5.5L8.44898 1Z" stroke="#BCBCBC" stroke-width="2" stroke-linecap="round" stroke-linejoin="round"/>
<path d="M8.44922 1V5.5H12.9186" stroke="#BCBCBC" stroke-width="2" stroke-linecap="round" stroke-linejoin="round"/>
<path d="M9.93965 9.25H3.98047" stroke="#BCBCBC" stroke-width="2" stroke-linecap="round" stroke-linejoin="round"/>
<path d="M9.93965 12.25H3.98047" stroke="#BCBCBC" stroke-width="2" stroke-linecap="round" stroke-linejoin="round"/>
<path d="M5.47026 6.25H4.72537H3.98047" stroke="#BCBCBC" stroke-width="2" stroke-linecap="round" stroke-linejoin="round"/>
</svg>
