<svg width="16" height="16" viewBox="0 0 16 16" fill="none" xmlns="http://www.w3.org/2000/svg">
<path d="M15.8911 7.55557C15.8942 8.72878 15.6219 9.88613 15.0966 10.9333C14.4737 12.1882 13.5161 13.2437 12.331 13.9816C11.146 14.7195 9.78032 15.1106 8.38699 15.1111C7.22175 15.1142 6.07228 14.8401 5.03219 14.3111L0 16L1.6774 10.9333C1.15205 9.88613 0.879803 8.72878 0.882841 7.55557C0.88338 6.15269 1.27183 4.77766 2.00468 3.58451C2.73754 2.39135 3.78585 1.42719 5.03219 0.800024C6.07228 0.271075 7.22175 -0.00303356 8.38699 2.53227e-05H8.82841C10.6686 0.10224 12.4066 0.884256 13.7098 2.19634C15.0129 3.50843 15.7896 5.25837 15.8911 7.11112V7.55557Z" fill="#BCBCBC"/>
</svg>
