<svg width="16" height="16" viewBox="0 0 16 16" fill="none" xmlns="http://www.w3.org/2000/svg">
<path d="M16 7.55557C16.003 8.72878 15.7289 9.88613 15.2 10.9333C14.5728 12.1882 13.6086 13.2437 12.4155 13.9816C11.2223 14.7195 9.84731 15.1106 8.44443 15.1111C7.27122 15.1142 6.11387 14.8401 5.06666 14.3111L0 16L1.68889 10.9333C1.15994 9.88613 0.885829 8.72878 0.888887 7.55557C0.88943 6.15269 1.28054 4.77766 2.01841 3.58451C2.75629 2.39135 3.81178 1.42719 5.06666 0.800024C6.11387 0.271075 7.27122 -0.00303356 8.44443 2.53227e-05H8.88888C10.7416 0.10224 12.4916 0.884256 13.8037 2.19634C15.1157 3.50843 15.8978 5.25837 16 7.11112V7.55557Z" fill="#9A9A9A"/>
</svg>
