<svg width="18" height="18" viewBox="0 0 18 18" fill="none" xmlns="http://www.w3.org/2000/svg">
<path d="M7.39062 9.80535C7.73614 10.2677 8.17696 10.6503 8.68317 10.9272C9.18939 11.204 9.74917 11.3686 10.3245 11.4099C10.8999 11.4511 11.4774 11.368 12.0179 11.1662C12.5583 10.9644 13.0491 10.6486 13.4569 10.2402L15.8706 7.82419C16.6033 7.06474 17.0088 6.04757 16.9997 4.99177C16.9905 3.93596 16.5674 2.926 15.8216 2.17941C15.0757 1.43282 14.0668 1.00933 13.012 1.00015C11.9573 0.990978 10.9411 1.39685 10.1824 2.13036L8.79859 3.50751" stroke="#9A9A9A" stroke-width="2" stroke-linecap="round" stroke-linejoin="round"/>
<path d="M10.6092 8.19465C10.2637 7.73227 9.82285 7.34969 9.31663 7.07284C8.81041 6.796 8.25064 6.63137 7.67527 6.59012C7.0999 6.54887 6.5224 6.63197 5.98194 6.83378C5.44148 7.03559 4.95069 7.35139 4.54288 7.75976L2.12923 10.1758C1.39646 10.9353 0.990987 11.9524 1.00015 13.0082C1.00932 14.064 1.43239 15.074 2.17823 15.8206C2.92408 16.5672 3.93304 16.9907 4.98779 16.9999C6.04254 17.009 7.05869 16.6032 7.81739 15.8696L9.19317 14.4925" stroke="#9A9A9A" stroke-width="2" stroke-linecap="round" stroke-linejoin="round"/>
</svg>
