<svg width="18" height="18" viewBox="0 0 18 18" fill="none" xmlns="http://www.w3.org/2000/svg">
<path d="M15.2222 1H2.77778C1.79594 1 1 1.79594 1 2.77778V15.2222C1 16.2041 1.79594 17 2.77778 17H15.2222C16.2041 17 17 16.2041 17 15.2222V2.77778C17 1.79594 16.2041 1 15.2222 1Z" stroke="#9A9A9A" stroke-width="2" stroke-linecap="round" stroke-linejoin="round"/>
<path d="M5.889 7.22221C6.62538 7.22221 7.22233 6.62526 7.22233 5.88888C7.22233 5.1525 6.62538 4.55554 5.889 4.55554C5.15262 4.55554 4.55566 5.1525 4.55566 5.88888C4.55566 6.62526 5.15262 7.22221 5.889 7.22221Z" stroke="#9A9A9A" stroke-width="2" stroke-linecap="round" stroke-linejoin="round"/>
<path d="M16.9996 11.6667L12.5551 7.22223L2.77734 17" stroke="#9A9A9A" stroke-width="2" stroke-linecap="round" stroke-linejoin="round"/>
</svg>
