<svg width="23" height="23" viewBox="0 0 23 23" fill="none" xmlns="http://www.w3.org/2000/svg">
<path d="M8.51752 20.4406H14.0495C18.6596 20.4406 20.5036 18.5966 20.5036 13.9866V8.45453C20.5036 3.8445 18.6596 2.00049 14.0495 2.00049H8.51752C3.90749 2.00049 2.06348 3.8445 2.06348 8.45453V13.9866C2.06348 18.5966 3.90749 20.4406 8.51752 20.4406Z" stroke="#292D32" stroke-width="1.38301" stroke-linecap="round" stroke-linejoin="round"/>
<path d="M8.51784 9.3765C9.53626 9.3765 10.3619 8.55091 10.3619 7.53249C10.3619 6.51407 9.53626 5.68848 8.51784 5.68848C7.49942 5.68848 6.67383 6.51407 6.67383 7.53249C6.67383 8.55091 7.49942 9.3765 8.51784 9.3765Z" stroke="#292D32" stroke-width="1.38301" stroke-linecap="round" stroke-linejoin="round"/>
<path d="M2.68164 17.6285L7.22713 14.5767C7.95551 14.088 9.0066 14.1433 9.66122 14.7057L9.96548 14.9731C10.6846 15.5909 11.8464 15.5909 12.5655 14.9731L16.4011 11.6816C17.1202 11.0638 18.282 11.0638 19.0011 11.6816L20.504 12.9724" stroke="#292D32" stroke-width="1.38301" stroke-linecap="round" stroke-linejoin="round"/>
</svg>
