<svg width="18" height="18" viewBox="0 0 18 18" fill="none" xmlns="http://www.w3.org/2000/svg">
<path d="M7.05566 9.80535C7.40061 10.2677 7.84071 10.6503 8.3461 10.9272C8.85148 11.204 9.41035 11.3686 9.98477 11.4099C10.5592 11.4511 11.1358 11.368 11.6753 11.1662C12.2149 10.9644 12.7049 10.6486 13.112 10.2402L15.5217 7.82419C16.2533 7.06473 16.6581 6.04757 16.649 4.99176C16.6398 3.93596 16.2174 2.926 15.4728 2.17941C14.7282 1.43282 13.7209 1.00933 12.6679 1.00015C11.6148 0.990978 10.6003 1.39685 9.84288 2.13036L8.46132 3.50751" stroke="#9A9A9A" stroke-linecap="round" stroke-linejoin="round"/>
<path d="M10.2687 8.19489C9.92379 7.73252 9.4837 7.34993 8.97831 7.07309C8.47292 6.79624 7.91406 6.63161 7.33964 6.59037C6.76521 6.54912 6.18866 6.63222 5.64908 6.83403C5.1095 7.03584 4.61952 7.35163 4.21237 7.76L1.80268 10.1761C1.0711 10.9355 0.666294 11.9527 0.675445 13.0085C0.684595 14.0643 1.10697 15.0742 1.8516 15.8208C2.59623 16.5674 3.60353 16.9909 4.65656 17.0001C5.70958 17.0093 6.72407 16.6034 7.48153 15.8699L8.85505 14.4927" stroke="#9A9A9A" stroke-linecap="round" stroke-linejoin="round"/>
</svg>
