<svg width="19" height="14" viewBox="0 0 19 14" fill="none" xmlns="http://www.w3.org/2000/svg">
<path d="M16.843 1.179C17.8713 2.273 18.4234 3.5 18.4234 5.489C18.4234 8.989 15.9714 12.126 12.4032 13.677L11.5117 12.299C14.8412 10.495 15.4922 8.154 15.7528 6.678C15.2166 6.956 14.5148 7.053 13.8259 6.989C12.0249 6.822 10.6052 5.341 10.6052 3.5C10.6052 2.57174 10.9733 1.6815 11.6286 1.02513C12.2839 0.368749 13.1727 0 14.0995 0C15.1707 0 16.196 0.49 16.843 1.179ZM6.85933 1.179C7.88765 2.273 8.43974 3.5 8.43974 5.489C8.43974 8.989 5.98776 12.126 2.41961 13.677L1.52807 12.299C4.85762 10.495 5.50855 8.154 5.76812 6.678C5.232 6.956 4.53015 7.053 3.84228 6.989C2.04123 6.823 0.622559 5.342 0.622559 3.5C0.622559 2.57174 0.990704 1.6815 1.64601 1.02513C2.30131 0.368749 3.19009 0 4.11683 0C5.18807 0 6.21339 0.49 6.86033 1.179" fill="#9A9A9A"/>
</svg>
