<svg width="17" height="14" viewBox="0 0 17 14" fill="none" xmlns="http://www.w3.org/2000/svg">
<path d="M2.25194 0.5C1.95575 0.5 1.66622 0.587973 1.41995 0.752796C1.17368 0.917618 0.981735 1.15189 0.868389 1.42597C0.755043 1.70006 0.725387 2.00166 0.78317 2.29264C0.840953 2.58361 0.983581 2.85088 1.19302 3.06066C1.40245 3.27044 1.66929 3.4133 1.95978 3.47118C2.25028 3.52906 2.55139 3.49935 2.82503 3.38582C3.09867 3.27229 3.33255 3.08003 3.4971 2.83336C3.66166 2.58668 3.74949 2.29667 3.74949 2C3.74949 1.60218 3.59171 1.22064 3.31086 0.93934C3.03002 0.658035 2.64911 0.5 2.25194 0.5ZM2.25194 5.5C1.95575 5.5 1.66622 5.58797 1.41995 5.7528C1.17368 5.91762 0.981735 6.15189 0.868389 6.42597C0.755043 6.70006 0.725387 7.00166 0.78317 7.29264C0.840953 7.58361 0.983581 7.85088 1.19302 8.06066C1.40245 8.27044 1.66929 8.4133 1.95978 8.47118C2.25028 8.52906 2.55139 8.49935 2.82503 8.38582C3.09867 8.27229 3.33255 8.08003 3.4971 7.83335C3.66166 7.58668 3.74949 7.29667 3.74949 7C3.74949 6.60218 3.59171 6.22064 3.31086 5.93934C3.03002 5.65804 2.64911 5.5 2.25194 5.5ZM2.25194 10.5C1.95575 10.5 1.66622 10.588 1.41995 10.7528C1.17368 10.9176 0.981735 11.1519 0.868389 11.426C0.755043 11.7001 0.725387 12.0017 0.78317 12.2926C0.840953 12.5836 0.983581 12.8509 1.19302 13.0607C1.40245 13.2704 1.66929 13.4133 1.95978 13.4712C2.25028 13.5291 2.55139 13.4994 2.82503 13.3858C3.09867 13.2723 3.33255 13.08 3.4971 12.8334C3.66166 12.5867 3.74949 12.2967 3.74949 12C3.74949 11.6022 3.59171 11.2206 3.31086 10.9393C3.03002 10.658 2.64911 10.5 2.25194 10.5ZM16.229 11H6.24539C6.113 11 5.98603 11.0527 5.89242 11.1464C5.7988 11.2402 5.74621 11.3674 5.74621 11.5V12.5C5.74621 12.6326 5.7988 12.7598 5.89242 12.8536C5.98603 12.9473 6.113 13 6.24539 13H16.229C16.3614 13 16.4884 12.9473 16.582 12.8536C16.6756 12.7598 16.7282 12.6326 16.7282 12.5V11.5C16.7282 11.3674 16.6756 11.2402 16.582 11.1464C16.4884 11.0527 16.3614 11 16.229 11ZM16.229 1H6.24539C6.113 1 5.98603 1.05268 5.89242 1.14645C5.7988 1.24021 5.74621 1.36739 5.74621 1.5V2.5C5.74621 2.63261 5.7988 2.75979 5.89242 2.85355C5.98603 2.94732 6.113 3 6.24539 3H16.229C16.3614 3 16.4884 2.94732 16.582 2.85355C16.6756 2.75979 16.7282 2.63261 16.7282 2.5V1.5C16.7282 1.36739 16.6756 1.24021 16.582 1.14645C16.4884 1.05268 16.3614 1 16.229 1ZM16.229 6H6.24539C6.113 6 5.98603 6.05268 5.89242 6.14645C5.7988 6.24021 5.74621 6.36739 5.74621 6.5V7.5C5.74621 7.63261 5.7988 7.75979 5.89242 7.85355C5.98603 7.94732 6.113 8 6.24539 8H16.229C16.3614 8 16.4884 7.94732 16.582 7.85355C16.6756 7.75979 16.7282 7.63261 16.7282 7.5V6.5C16.7282 6.36739 16.6756 6.24021 16.582 6.14645C16.4884 6.05268 16.3614 6 16.229 6Z" fill="#9A9A9A"/>
</svg>
