<svg width="13" height="14" viewBox="0 0 13 14" fill="none" xmlns="http://www.w3.org/2000/svg">
<path d="M5.85403 0C8.01426 0 9.63444 0.233134 10.7146 0.777114C11.8847 1.32109 12.4247 2.25363 12.4247 3.57473C12.4247 4.35184 12.1547 5.05124 11.7947 5.59522C11.5906 5.86095 11.3255 6.0877 11.0159 6.26146C10.7062 6.43523 10.3586 6.55231 9.99448 6.60547C10.509 6.70924 10.9972 6.89362 11.4346 7.14945C11.7947 7.38259 12.1547 7.77114 12.4247 8.1597C12.7064 8.72261 12.8298 9.33509 12.7848 9.94706C12.8166 10.5085 12.6946 11.0685 12.4288 11.5816C12.1629 12.0947 11.7606 12.5464 11.2546 12.9001C9.97329 13.6902 8.41551 14.0744 6.84413 13.9881H0.813477V0H5.85403ZM6.21407 5.51751C7.20417 5.51751 7.92425 5.4398 8.28429 5.12895C8.73434 4.89582 8.91436 4.42955 8.91436 3.96328C8.91436 3.4193 8.64433 3.03075 8.19428 2.79761C7.74423 2.56448 7.02415 2.40905 6.03405 2.40905H4.23385V5.51751H6.21407ZM4.23385 7.84886V11.6567H6.4841C7.4742 11.6567 8.28429 11.4236 8.64433 11.1127C9.09438 10.7242 9.2744 10.3356 9.2744 9.71393C9.28513 9.47903 9.234 9.24509 9.12486 9.02972C9.01573 8.81435 8.85143 8.62317 8.64433 8.47055C8.19428 8.1597 7.4742 8.00428 6.39409 8.00428H4.14384L4.23385 7.84886Z" fill="#9A9A9A"/>
</svg>
