<svg width="17" height="16" viewBox="0 0 17 16" fill="none" xmlns="http://www.w3.org/2000/svg">
<g clip-path="url(#clip0_1878_463)">
<path d="M2.65518 12.5312L3.20116 11.9016C3.30982 11.7802 3.36661 11.621 3.35934 11.4581V11.3547C3.35934 11.125 3.23954 11 3.00554 11H1.22721C1.16101 11 1.09753 11.0263 1.05072 11.0732C1.00391 11.1201 0.977618 11.1837 0.977618 11.25V11.75C0.977618 11.8163 1.00391 11.8799 1.05072 11.9268C1.09753 11.9737 1.16101 12 1.22721 12H1.93948C1.81844 12.1221 1.70389 12.2505 1.59629 12.3847L1.42127 12.6034C1.29647 12.7619 1.25747 12.92 1.33391 13.0684L1.36667 13.1287C1.46026 13.3088 1.56291 13.375 1.74885 13.375H1.89642C2.21871 13.375 2.39373 13.4513 2.39373 13.6591C2.39373 13.8066 2.2627 13.9159 1.94572 13.9159C1.78009 13.9146 1.61626 13.8815 1.46307 13.8184C1.26059 13.6972 1.0968 13.7091 0.97637 13.9159L0.801969 14.2069C0.685909 14.3984 0.702444 14.5731 0.884022 14.705C1.12456 14.8516 1.51985 15 2.03838 15C3.10413 15 3.55152 14.2891 3.55152 13.6213C3.55059 13.1719 3.26699 12.6912 2.65518 12.5312ZM16.2027 7H6.21903C6.08663 7 5.95967 7.05268 5.86605 7.14645C5.77244 7.24021 5.71984 7.36739 5.71984 7.5V8.5C5.71984 8.63261 5.77244 8.75979 5.86605 8.85355C5.95967 8.94732 6.08663 9 6.21903 9H16.2027C16.335 9 16.462 8.94732 16.5556 8.85355C16.6492 8.75979 16.7018 8.63261 16.7018 8.5V7.5C16.7018 7.36739 16.6492 7.24021 16.5556 7.14645C16.462 7.05268 16.335 7 16.2027 7ZM16.2027 2H6.21903C6.08663 2 5.95967 2.05268 5.86605 2.14645C5.77244 2.24021 5.71984 2.36739 5.71984 2.5V3.5C5.71984 3.63261 5.77244 3.75979 5.86605 3.85355C5.95967 3.94732 6.08663 4 6.21903 4H16.2027C16.335 4 16.462 3.94732 16.5556 3.85355C16.6492 3.75979 16.7018 3.63261 16.7018 3.5V2.5C16.7018 2.36739 16.6492 2.24021 16.5556 2.14645C16.462 2.05268 16.335 2 16.2027 2ZM16.2027 12H6.21903C6.08663 12 5.95967 12.0527 5.86605 12.1464C5.77244 12.2402 5.71984 12.3674 5.71984 12.5V13.5C5.71984 13.6326 5.77244 13.7598 5.86605 13.8536C5.95967 13.9473 6.08663 14 6.21903 14H16.2027C16.335 14 16.462 13.9473 16.5556 13.8536C16.6492 13.7598 16.7018 13.6326 16.7018 13.5V12.5C16.7018 12.3674 16.6492 12.2402 16.5556 12.1464C16.462 12.0527 16.335 12 16.2027 12ZM1.22721 5H3.22394C3.29013 5 3.35362 4.97366 3.40042 4.92678C3.44723 4.87989 3.47353 4.8163 3.47353 4.75V4.25C3.47353 4.1837 3.44723 4.12011 3.40042 4.07322C3.35362 4.02634 3.29013 4 3.22394 4H2.72475V1.25C2.72475 1.1837 2.69846 1.12011 2.65165 1.07322C2.60484 1.02634 2.54136 1 2.47516 1H1.72639C1.68013 1.00008 1.6348 1.01304 1.59546 1.03743C1.55613 1.06182 1.52433 1.09668 1.50363 1.13812L1.25404 1.63812C1.23502 1.67621 1.22602 1.71852 1.2279 1.76107C1.22978 1.80361 1.24248 1.84496 1.26479 1.88121C1.2871 1.91746 1.31829 1.94739 1.35539 1.96818C1.3925 1.98897 1.43429 1.99992 1.4768 2H1.72639V4H1.22721C1.16101 4 1.09753 4.02634 1.05072 4.07322C1.00391 4.12011 0.977618 4.1837 0.977618 4.25V4.75C0.977618 4.8163 1.00391 4.87989 1.05072 4.92678C1.09753 4.97366 1.16101 5 1.22721 5ZM1.10522 10H3.22394C3.29013 10 3.35362 9.97366 3.40042 9.92678C3.44723 9.87989 3.47353 9.8163 3.47353 9.75V9.25C3.47353 9.1837 3.44723 9.12011 3.40042 9.07322C3.35362 9.02634 3.29013 9 3.22394 9H2.01716C2.11981 8.67844 3.52532 8.41625 3.52532 7.23625C3.52532 6.32812 2.74535 6 2.1379 6C1.4715 6 1.08338 6.3125 0.875598 6.58594C0.739259 6.76062 0.782001 6.92469 0.962955 7.06625L1.23064 7.28125C1.40567 7.42375 1.57383 7.35844 1.73357 7.205C1.81236 7.12767 1.9184 7.08456 2.02871 7.085C2.1326 7.085 2.31823 7.13375 2.31823 7.35844C2.31917 7.75594 0.728027 8.04094 0.728027 9.51844V9.64344C0.728027 9.875 0.886518 10 1.10522 10Z" fill="#9A9A9A"/>
</g>
<defs>
<clipPath id="clip0_1878_463">
<rect width="15.9738" height="16" fill="white" transform="translate(0.728027)"/>
</clipPath>
</defs>
</svg>
