<svg width="18" height="18" viewBox="0 0 18 18" fill="none" xmlns="http://www.w3.org/2000/svg">
<path d="M8.61064 5L6.21457 13M12.6041 5L10.208 13M14.2015 7.4H5.41588M13.4028 10.6H4.61719" stroke="#9A9A9A" stroke-linecap="round" stroke-linejoin="round"/>
<path d="M17.3972 9C17.3972 12.7712 17.3972 14.6568 16.2271 15.828C15.0586 17 13.1753 17 9.41025 17C5.64522 17 3.7627 17 2.59262 15.828C1.42334 14.6576 1.42334 12.7712 1.42334 9C1.42334 5.2288 1.42334 3.3432 2.59262 2.1712C3.7635 1 5.64522 1 9.41025 1C13.1753 1 15.0578 1 16.2271 2.1712C17.005 2.9504 17.2654 4.0456 17.3532 5.8" stroke="#9A9A9A" stroke-linecap="round"/>
</svg>
